<svg width="40" height="40" viewBox="0 0 40 40" fill="none" xmlns="http://www.w3.org/2000/svg">
<path d="M19.9998 13.3333C19.5578 13.3333 19.1339 13.5089 18.8213 13.8215C18.5087 14.134 18.3332 14.558 18.3332 15C18.3332 15.442 18.5087 15.8659 18.8213 16.1785C19.1339 16.4911 19.5578 16.6667 19.9998 16.6667C20.8839 16.6667 21.7317 17.0179 22.3568 17.643C22.982 18.2681 23.3332 19.1159 23.3332 20C23.3332 20.8841 22.982 21.7319 22.3568 22.357C21.7317 22.9821 20.8839 23.3333 19.9998 23.3333C19.5578 23.3333 19.1339 23.5089 18.8213 23.8215C18.5087 24.134 18.3332 24.558 18.3332 25C18.3332 25.442 18.5087 25.8659 18.8213 26.1785C19.1339 26.4911 19.5578 26.6667 19.9998 26.6667C21.7679 26.6667 23.4636 25.9643 24.7139 24.714C25.9641 23.4638 26.6665 21.7681 26.6665 20C26.6665 18.2319 25.9641 16.5362 24.7139 15.286C23.4636 14.0357 21.7679 13.3333 19.9998 13.3333ZM36.1832 18.8167L32.2665 15V9.4C32.2665 8.95797 32.0909 8.53405 31.7783 8.22149C31.4658 7.90893 31.0418 7.73333 30.5998 7.73333H25.0832L21.1832 3.81667C21.0282 3.66045 20.8439 3.53646 20.6408 3.45185C20.4377 3.36723 20.2198 3.32367 19.9998 3.32367C19.7798 3.32367 19.562 3.36723 19.3589 3.45185C19.1558 3.53646 18.9714 3.66045 18.8165 3.81667L14.9998 7.73333H9.39982C8.95779 7.73333 8.53387 7.90893 8.22131 8.22149C7.90875 8.53405 7.73315 8.95797 7.73315 9.4V15L3.81648 18.8167C3.66027 18.9716 3.53628 19.1559 3.45166 19.359C3.36705 19.5621 3.32349 19.78 3.32349 20C3.32349 20.22 3.36705 20.4379 3.45166 20.641C3.53628 20.8441 3.66027 21.0284 3.81648 21.1833L7.73315 25.0833V30.6C7.73315 31.042 7.90875 31.4659 8.22131 31.7785C8.53387 32.0911 8.95779 32.2667 9.39982 32.2667H14.9998L18.8998 36.1833C19.0548 36.3395 19.2391 36.4635 19.4422 36.5481C19.6453 36.6328 19.8631 36.6763 20.0832 36.6763C20.3032 36.6763 20.521 36.6328 20.7241 36.5481C20.9272 36.4635 21.1115 36.3395 21.2665 36.1833L25.1665 32.2667H30.6832C31.1252 32.2667 31.5491 32.0911 31.8617 31.7785C32.1742 31.4659 32.3498 31.042 32.3498 30.6V25.0833L36.2665 21.1833C36.4174 21.023 36.535 20.8343 36.6125 20.6282C36.6901 20.4221 36.726 20.2027 36.7183 19.9826C36.7105 19.7626 36.6592 19.5462 36.5674 19.3461C36.4755 19.146 36.3449 18.966 36.1832 18.8167ZM29.4332 23.2167C29.2757 23.371 29.1504 23.5551 29.0646 23.7582C28.9787 23.9613 28.9341 24.1795 28.9332 24.4V28.9333H24.3998C24.1793 28.9342 23.9612 28.9789 23.758 29.0647C23.5549 29.1506 23.3708 29.2759 23.2165 29.4333L19.9998 32.65L16.7832 29.4333C16.6288 29.2759 16.4447 29.1506 16.2416 29.0647C16.0385 28.9789 15.8203 28.9342 15.5998 28.9333H11.0665V24.4C11.0656 24.1795 11.0209 23.9613 10.9351 23.7582C10.8492 23.5551 10.724 23.371 10.5665 23.2167L7.34982 20L10.5665 16.7833C10.724 16.629 10.8492 16.4449 10.9351 16.2418C11.0209 16.0386 11.0656 15.8205 11.0665 15.6V11.0667H15.5998C15.8203 11.0658 16.0385 11.0211 16.2416 10.9353C16.4447 10.8494 16.6288 10.7241 16.7832 10.5667L19.9998 7.35L23.2165 10.5667C23.3708 10.7241 23.5549 10.8494 23.758 10.9353C23.9612 11.0211 24.1793 11.0658 24.3998 11.0667H28.9332V15.6C28.9341 15.8205 28.9787 16.0386 29.0646 16.2418C29.1504 16.4449 29.2757 16.629 29.4332 16.7833L32.6498 20L29.4332 23.2167Z" fill="#A3ABB2"/>
</svg>
