<svg width="16" height="15" viewBox="0 0 16 15" fill="none" xmlns="http://www.w3.org/2000/svg">
  <path d="M12.6666 12.1667H3.33329C3.15648 12.1667 2.98691 12.2281 2.86189 12.3375C2.73686 12.4469 2.66663 12.5953 2.66663 12.75C2.66663 12.9047 2.73686 13.0531 2.86189 13.1625C2.98691 13.2719 3.15648 13.3333 3.33329 13.3333H12.6666C12.8434 13.3333 13.013 13.2719 13.138 13.1625C13.2631 13.0531 13.3333 12.9047 13.3333 12.75C13.3333 12.5953 13.2631 12.4469 13.138 12.3375C13.013 12.2281 12.8434 12.1667 12.6666 12.1667ZM7.52663 10.8308C7.59003 10.8839 7.66479 10.9256 7.74663 10.9533C7.82643 10.9842 7.91271 11.0001 7.99996 11.0001C8.08721 11.0001 8.17349 10.9842 8.25329 10.9533C8.33513 10.9256 8.40989 10.8839 8.47329 10.8308L11.14 8.4975C11.2655 8.38765 11.336 8.23867 11.336 8.08333C11.336 7.92799 11.2655 7.77901 11.14 7.66916C11.0144 7.55932 10.8442 7.49761 10.6666 7.49761C10.4891 7.49761 10.3188 7.55932 10.1933 7.66916L8.66663 9.01083V2.25C8.66663 2.09529 8.59639 1.94691 8.47136 1.83752C8.34634 1.72812 8.17677 1.66666 7.99996 1.66666C7.82315 1.66666 7.65358 1.72812 7.52855 1.83752C7.40353 1.94691 7.33329 2.09529 7.33329 2.25V9.01083L5.80663 7.66916C5.74447 7.61477 5.67067 7.57163 5.58946 7.5422C5.50824 7.51276 5.4212 7.49761 5.33329 7.49761C5.24539 7.49761 5.15834 7.51276 5.07713 7.5422C4.99591 7.57163 4.92212 7.61477 4.85996 7.66916C4.7978 7.72355 4.74849 7.78812 4.71485 7.85918C4.68121 7.93025 4.6639 8.00641 4.6639 8.08333C4.6639 8.16025 4.68121 8.23641 4.71485 8.30748C4.74849 8.37854 4.7978 8.44311 4.85996 8.4975L7.52663 10.8308Z" fill="currentColor"/>
</svg>