<svg width="36" height="37" viewBox="0 0 36 37" fill="none" xmlns="http://www.w3.org/2000/svg">
<path d="M18 3.87005C14.4382 3.8702 10.9927 5.13772 8.27995 7.44582C5.5672 9.75392 3.76425 12.952 3.1937 16.4678C2.62315 19.9836 3.32223 23.5877 5.16585 26.6352C7.00947 29.6827 9.87733 31.9748 13.2563 33.1013C14.0063 33.2326 14.2875 32.7826 14.2875 32.3888C14.2875 32.0325 14.2688 30.8513 14.2688 29.595C10.5 30.2888 9.525 28.6763 9.225 27.8326C8.89212 27.012 8.36442 26.2848 7.6875 25.7138C7.1625 25.4325 6.4125 24.7388 7.66874 24.7201C8.14842 24.7721 8.60848 24.939 9.00995 25.2067C9.41142 25.4743 9.74245 25.8348 9.975 26.2575C10.1802 26.6261 10.456 26.9505 10.7868 27.2123C11.1176 27.474 11.4967 27.6679 11.9026 27.7829C12.3084 27.8979 12.7329 27.9316 13.1518 27.8822C13.5707 27.8328 13.9758 27.7012 14.3437 27.495C14.4087 26.7325 14.7485 26.0195 15.3 25.4888C11.9625 25.1138 8.475 23.82 8.475 18.0826C8.45392 16.5918 9.00403 15.1495 10.0125 14.0513C9.55393 12.7557 9.60758 11.3338 10.1625 10.0763C10.1625 10.0763 11.4187 9.68258 14.2875 11.6138C16.7419 10.9388 19.3331 10.9388 21.7875 11.6138C24.6562 9.66384 25.9125 10.0763 25.9125 10.0763C26.4675 11.3338 26.5212 12.7557 26.0625 14.0513C27.074 15.1476 27.6246 16.5912 27.6 18.0826C27.6 23.8388 24.0937 25.1138 20.7563 25.4888C21.1142 25.8517 21.3899 26.2873 21.5646 26.7661C21.7393 27.2449 21.809 27.7557 21.7688 28.2638C21.7688 30.2701 21.75 31.8826 21.75 32.3888C21.75 32.7826 22.0312 33.2513 22.7812 33.1013C26.1542 31.9656 29.0139 29.6682 30.8496 26.6191C32.6854 23.57 33.3778 19.9678 32.8033 16.4554C32.2288 12.943 30.4248 9.74911 27.7132 7.44381C25.0016 5.13852 21.5591 3.8719 18 3.87005Z" fill="currentColor"/>
</svg>
