<svg width="36" height="37" viewBox="0 0 36 37" fill="none" xmlns="http://www.w3.org/2000/svg">
<path d="M30.705 3.5H5.295C5.00937 3.49603 4.72575 3.54837 4.46035 3.65402C4.19495 3.75968 3.95295 3.91658 3.7482 4.11576C3.54344 4.31495 3.37992 4.55252 3.26699 4.81491C3.15405 5.0773 3.09391 5.35936 3.09 5.645V31.355C3.09391 31.6406 3.15405 31.9227 3.26699 32.1851C3.37992 32.4475 3.54344 32.685 3.7482 32.8842C3.95295 33.0834 4.19495 33.2403 4.46035 33.346C4.72575 33.4516 5.00937 33.504 5.295 33.5H30.705C30.9906 33.504 31.2742 33.4516 31.5396 33.346C31.8051 33.2403 32.047 33.0834 32.2518 32.8842C32.4566 32.685 32.6201 32.4475 32.733 32.1851C32.8459 31.9227 32.9061 31.6406 32.91 31.355V5.645C32.9061 5.35936 32.8459 5.0773 32.733 4.81491C32.6201 4.55252 32.4566 4.31495 32.2518 4.11576C32.047 3.91658 31.8051 3.75968 31.5396 3.65402C31.2742 3.54837 30.9906 3.49603 30.705 3.5ZM12.135 28.61H7.635V15.11H12.135V28.61ZM9.885 13.22C9.26439 13.22 8.6692 12.9735 8.23037 12.5346C7.79153 12.0958 7.545 11.5006 7.545 10.88C7.545 10.2594 7.79153 9.6642 8.23037 9.22537C8.6692 8.78653 9.26439 8.54 9.885 8.54C10.2145 8.50262 10.5483 8.53528 10.8643 8.63582C11.1804 8.73636 11.4716 8.90253 11.719 9.12344C11.9664 9.34435 12.1643 9.61501 12.2998 9.91772C12.4353 10.2204 12.5054 10.5483 12.5054 10.88C12.5054 11.2117 12.4353 11.5396 12.2998 11.8423C12.1643 12.145 11.9664 12.4156 11.719 12.6366C11.4716 12.8575 11.1804 13.0236 10.8643 13.1242C10.5483 13.2247 10.2145 13.2574 9.885 13.22ZM28.365 28.61H23.865V21.365C23.865 19.55 23.22 18.365 21.585 18.365C21.079 18.3687 20.5863 18.5274 20.1733 18.8198C19.7602 19.1121 19.4467 19.524 19.275 20C19.1576 20.3526 19.1068 20.7239 19.125 21.095V28.595H14.625C14.625 28.595 14.625 16.325 14.625 15.095H19.125V17C19.5338 16.2907 20.1284 15.7063 20.8447 15.3098C21.561 14.9133 22.3719 14.7198 23.19 14.75C26.19 14.75 28.365 16.685 28.365 20.84V28.61Z" fill="currentColor"/>
</svg>
