<svg width="36" height="37" viewBox="0 0 36 37" fill="none" xmlns="http://www.w3.org/2000/svg">
<path d="M33 9.2C31.8725 9.68914 30.6801 10.0125 29.46 10.16C30.7473 9.39098 31.7119 8.18118 32.175 6.755C30.9653 7.4751 29.6411 7.98245 28.26 8.255C27.3368 7.25386 26.1075 6.58745 24.7647 6.36028C23.422 6.13311 22.0418 6.35804 20.8407 6.99979C19.6396 7.64153 18.6854 8.6638 18.1279 9.90626C17.5703 11.1487 17.4409 12.5411 17.76 13.865C15.3141 13.7413 12.9217 13.1044 10.738 11.9958C8.5543 10.8872 6.62827 9.33154 5.085 7.43C4.54371 8.37525 4.25928 9.44574 4.26 10.535C4.25808 11.5466 4.50633 12.5429 4.98263 13.4353C5.45894 14.3278 6.14853 15.0886 6.99 15.65C6.01197 15.6234 5.05483 15.3609 4.2 14.885V14.96C4.20733 16.3773 4.70399 17.7486 5.60597 18.8419C6.50795 19.9353 7.75988 20.6835 9.15 20.96C8.61488 21.1229 8.05931 21.2087 7.5 21.215C7.11284 21.2105 6.72663 21.1754 6.345 21.11C6.74086 22.3292 7.50693 23.3947 8.53661 24.1582C9.56629 24.9218 10.8084 25.3453 12.09 25.37C9.9258 27.0729 7.25383 28.0023 4.5 28.01C3.9986 28.0116 3.4976 27.9816 3 27.92C5.81164 29.7354 9.08822 30.6991 12.435 30.695C14.7445 30.719 17.0357 30.2825 19.1747 29.4111C21.3136 28.5397 23.2575 27.2508 24.8928 25.6197C26.5281 23.9887 27.8219 22.0481 28.6988 19.9114C29.5757 17.7746 30.0181 15.4846 30 13.175C30 12.92 30 12.65 30 12.38C31.177 11.5022 32.1922 10.4261 33 9.2V9.2Z" fill="currentColor"/>
</svg>
