<svg width="36" height="37" viewBox="0 0 36 37" fill="none" xmlns="http://www.w3.org/2000/svg">
<path d="M34.5 15.065C34.5742 12.918 34.1046 10.787 33.135 8.87C32.4771 8.0834 31.5641 7.55256 30.555 7.37C26.3813 6.99129 22.1903 6.83607 18 6.905C13.825 6.83294 9.64907 6.98315 5.49 7.355C4.66773 7.50457 3.90678 7.89026 3.3 8.465C1.95 9.71 1.8 11.84 1.65 13.64C1.43237 16.8763 1.43237 20.1237 1.65 23.36C1.6934 24.3731 1.84424 25.3787 2.1 26.36C2.28086 27.1176 2.64679 27.8185 3.165 28.4C3.7759 29.0052 4.55458 29.4128 5.4 29.57C8.63388 29.9692 11.8923 30.1346 15.15 30.065C20.4 30.14 25.005 30.065 30.45 29.645C31.3162 29.4975 32.1168 29.0893 32.745 28.475C33.1649 28.0549 33.4786 27.5406 33.66 26.975C34.1964 25.3289 34.4599 23.6062 34.44 21.875C34.5 21.035 34.5 15.965 34.5 15.065ZM14.61 22.775V13.49L23.49 18.155C21 19.535 17.715 21.095 14.61 22.775Z" fill="currentColor"/>
</svg>
